<?xml version="1.0" standalone="no"?>
<!DOCTYPE svg PUBLIC "-//W3C//DTD SVG 20010904//EN"
 "http://www.w3.org/TR/2001/REC-SVG-20010904/DTD/svg10.dtd">
<svg version="1.0" xmlns="http://www.w3.org/2000/svg"
 width="300.000000pt" height="373.000000pt" viewBox="0 0 300.000000 373.000000"
 preserveAspectRatio="xMidYMid meet">
<metadata>
Created by potrace 1.10, written by Peter Selinger 2001-2011
</metadata>
<g transform="translate(0.000000,373.000000) scale(0.100000,-0.100000)"
fill="#000000" stroke="none">
<path d="M1480 3037 c-3 -3 -43 -8 -90 -12 -85 -6 -130 -11 -173 -19 -12 -2
-40 -7 -62 -11 -40 -7 -97 -21 -125 -32 -8 -3 -21 -7 -28 -9 -8 -1 -21 -6 -30
-10 -9 -4 -23 -8 -30 -10 -7 -1 -33 -12 -58 -23 -24 -12 -48 -21 -53 -21 -5 0
-11 -3 -13 -7 -2 -5 -28 -21 -60 -36 -65 -33 -194 -148 -238 -213 -33 -49 -73
-132 -85 -179 -13 -49 -15 -58 -21 -100 -13 -96 -14 -102 -27 -155 -4 -14 -9
-36 -11 -50 -2 -14 -9 -37 -15 -52 -6 -16 -8 -28 -5 -28 4 0 2 -6 -3 -12 -12
-15 -23 -57 -30 -108 -2 -19 -6 -42 -9 -50 -18 -53 -25 -346 -11 -440 26 -175
86 -313 181 -416 79 -87 137 -124 329 -209 35 -15 149 -56 155 -55 1 0 3 0 5
-1 1 0 10 -2 20 -5 24 -6 36 -9 87 -23 25 -7 52 -14 60 -16 40 -7 87 -16 110
-20 88 -18 268 -24 402 -13 89 8 315 61 332 78 6 6 17 10 26 10 33 1 201 94
297 166 98 73 159 131 188 179 23 37 108 204 111 215 0 3 5 16 11 30 22 50 35
85 39 104 2 10 8 33 13 50 10 31 15 52 28 136 10 61 10 306 0 355 -5 22 -11
53 -14 69 -23 132 -135 339 -269 495 -210 244 -481 400 -756 436 -84 10 -173
17 -178 12z m135 -37 c50 -6 117 -17 150 -25 361 -91 704 -397 848 -756 49
-124 68 -230 66 -379 -2 -232 -62 -441 -184 -649 -100 -171 -340 -333 -615
-415 -118 -36 -204 -46 -380 -46 -224 0 -359 23 -594 101 -105 34 -278 117
-321 154 -110 93 -166 177 -223 332 l-35 98 -1 225 c0 242 -4 213 68 480 14
52 34 147 45 210 12 63 30 139 41 169 87 226 326 391 680 466 59 13 250 37
350 44 8 0 56 -4 105 -9z"/>
<path d="M1382 2934 c-343 -30 -577 -124 -739 -298 -91 -97 -120 -167 -154
-380 -12 -72 -29 -152 -39 -177 -50 -126 -82 -427 -61 -574 29 -204 76 -311
186 -420 121 -122 335 -213 660 -282 94 -19 397 -23 485 -5 208 43 389 121
536 233 111 84 149 124 202 215 105 181 162 389 162 596 0 290 -105 521 -348
764 -102 102 -201 174 -320 233 -94 48 -233 90 -317 97 -33 3 -71 6 -85 8 -14
2 -89 -3 -168 -10z m333 -39 c33 -9 71 -18 84 -21 13 -3 37 -12 52 -20 16 -8
31 -14 34 -14 6 0 85 -39 142 -71 170 -94 406 -357 488 -543 24 -55 62 -180
71 -235 9 -54 11 -238 3 -281 -5 -25 -10 -58 -13 -75 -2 -16 -11 -52 -20 -79
-8 -27 -14 -52 -14 -55 3 -16 -77 -189 -128 -279 -14 -23 -46 -61 -71 -85 -25
-23 -51 -47 -57 -52 -6 -6 -33 -26 -61 -45 -27 -18 -52 -37 -55 -41 -3 -4 -50
-29 -106 -57 -89 -43 -120 -56 -159 -67 -5 -1 -32 -10 -60 -20 -27 -9 -66 -19
-85 -21 -19 -3 -49 -8 -66 -13 -41 -11 -356 -12 -397 0 -18 4 -48 10 -67 12
-19 3 -42 7 -50 10 -8 3 -28 8 -45 11 -66 13 -82 18 -132 36 -29 11 -53 17
-53 14 0 -4 -7 0 -17 7 -9 8 -19 13 -22 13 -8 -2 -58 20 -161 69 -65 31 -101
57 -155 111 -74 75 -90 97 -123 176 -13 30 -41 122 -49 165 -9 40 -9 350 -1
400 12 74 38 186 47 203 5 9 11 31 14 47 3 17 8 41 12 55 3 14 7 36 10 50 3
14 7 36 11 50 3 14 7 41 8 60 2 19 8 53 14 75 6 22 12 43 12 47 2 16 46 105
70 138 57 81 181 178 285 222 67 29 96 40 108 43 4 2 8 3 10 5 2 2 17 6 55 14
13 3 32 8 42 11 44 14 158 34 235 41 33 3 61 7 63 9 9 9 246 -7 297 -20z"/>
<path d="M1867 2599 c-9 -6 -29 -33 -43 -62 -15 -29 -28 -54 -30 -56 -3 -3
-31 22 -64 54 -50 50 -63 58 -78 49 -9 -6 -18 -22 -20 -36 -3 -24 24 -55 107
-121 21 -17 21 -20 8 -35 -19 -20 -59 -112 -50 -112 4 0 2 -5 -5 -12 -16 -16
-15 -53 3 -68 19 -16 53 -4 60 23 6 22 12 38 33 87 5 14 13 34 16 44 6 19 7
18 29 -1 42 -38 116 -83 136 -83 22 0 44 31 36 52 -3 7 -41 34 -85 59 l-80 46
25 33 c14 19 25 39 25 46 0 6 7 17 15 24 36 30 2 91 -38 69z m-1 -78 c-53 -83
-46 -109 44 -167 57 -37 73 -54 50 -54 -5 0 -10 5 -10 10 0 6 -4 10 -10 10 -5
0 -32 14 -58 30 -27 17 -56 30 -64 30 -22 0 -47 -32 -66 -86 -10 -26 -23 -49
-30 -52 -10 -3 -10 2 -1 25 6 15 15 37 19 48 4 11 13 33 19 48 18 46 13 60
-40 120 -28 32 -50 60 -48 62 2 2 24 -14 47 -36 24 -21 54 -39 66 -39 23 0 55
29 75 68 6 12 16 22 21 22 6 0 -1 -18 -14 -39z"/>
<path d="M1020 2478 c-12 -13 -40 -47 -62 -75 -22 -29 -42 -53 -44 -53 -2 0
-15 25 -29 55 -28 65 -50 78 -76 46 -18 -22 -18 -24 2 -64 12 -23 32 -54 46
-68 24 -26 24 -28 6 -38 -10 -6 -13 -11 -8 -11 6 0 6 -3 0 -8 -19 -13 -55 -83
-55 -106 0 -28 24 -50 45 -42 8 3 27 33 41 66 15 33 33 60 40 60 8 0 14 -4 14
-9 0 -15 95 -111 111 -111 20 0 39 20 39 40 0 15 -108 130 -123 130 -16 0 -4
-22 38 -67 60 -65 57 -84 -4 -22 -63 64 -90 65 -128 7 -15 -24 -28 -45 -30
-47 -2 -2 -5 -2 -8 1 -3 3 8 31 25 63 16 31 30 62 30 69 0 6 -11 32 -25 58
-29 55 -34 87 -5 41 40 -66 73 -62 143 18 25 30 48 52 50 49 3 -3 -17 -34 -44
-70 -66 -87 -62 -110 6 -35 69 76 82 101 68 123 -16 26 -39 26 -63 0z"/>
<path d="M2172 2108 c-15 -15 -16 -54 -2 -63 6 -4 24 -7 41 -7 29 -1 30 -3 25
-37 -3 -20 -8 -56 -11 -81 -8 -69 -23 -141 -38 -180 -15 -39 -31 -96 -29 -102
1 -5 -2 -8 -8 -8 -5 0 -10 -6 -10 -13 0 -21 -85 -174 -128 -231 -98 -128 -133
-152 -239 -159 -60 -3 -93 -11 -130 -30 -82 -43 -122 -50 -213 -34 -93 16
-137 42 -244 149 -103 102 -136 124 -203 134 -142 21 -155 24 -184 45 -31 22
-84 124 -96 184 -2 10 -11 31 -20 45 -41 60 -18 -53 32 -165 31 -68 109 -125
172 -125 63 0 164 -32 204 -66 22 -19 39 -34 36 -34 -4 0 80 -82 139 -136 7
-6 27 -16 46 -23 18 -7 48 -19 66 -27 20 -8 67 -15 115 -15 69 0 89 4 130 25
32 18 77 29 140 37 78 10 100 17 145 47 101 67 254 309 311 493 15 49 42 249
38 278 -2 14 -17 35 -33 48 -22 18 -25 23 -11 23 18 0 156 -46 165 -55 12 -12
-8 -16 -27 -5 -15 7 -27 8 -39 1 -15 -9 -15 -10 -1 -11 9 0 22 -7 29 -16 8 -9
25 -14 44 -12 25 2 32 8 34 30 3 23 -2 30 -35 44 -21 8 -42 17 -48 18 -5 1
-14 4 -20 8 -11 6 -114 38 -125 38 -3 0 -11 -5 -18 -12z"/>
<path d="M2275 1953 c-9 -74 -52 -263 -68 -308 -18 -48 -11 -59 67 -104 75
-42 109 -91 114 -164 3 -36 0 -63 -7 -70 -6 -6 -11 -18 -11 -27 0 -25 -33 -50
-64 -50 -37 0 -80 23 -149 81 -32 27 -68 49 -79 49 -13 0 -45 -26 -82 -66 -82
-89 -122 -111 -219 -117 -58 -4 -94 -13 -143 -36 -54 -25 -79 -31 -134 -31
-138 0 -247 55 -365 185 -78 85 -112 102 -226 115 -83 10 -125 26 -159 62 -23
25 -80 141 -100 201 -11 35 -20 44 -32 31 -11 -10 51 -167 86 -220 37 -55 92
-89 162 -98 101 -14 131 -19 157 -31 10 -4 62 -51 115 -105 121 -121 174 -150
299 -166 103 -14 148 -7 219 33 55 31 60 32 124 33 85 2 130 21 197 83 34 32
68 71 75 88 7 16 15 29 19 29 3 0 29 -23 58 -50 60 -57 131 -102 168 -106 53
-6 74 15 110 106 12 32 9 116 -7 155 -22 58 -98 119 -164 132 -29 5 -30 10
-13 36 14 22 47 118 53 157 2 8 6 31 10 50 4 19 7 38 6 41 -1 4 3 21 8 39 10
34 3 90 -11 90 -4 0 -11 -21 -14 -47z"/>
<path d="M645 1809 c-19 -10 -35 -15 -35 -13 0 7 -63 -27 -97 -53 -35 -26 -42
-53 -18 -73 18 -15 42 -7 85 30 38 32 25 40 -24 15 -46 -24 -42 -9 5 21 53 33
106 56 142 60 34 4 36 -12 2 -20 -14 -4 -25 -13 -25 -20 0 -11 8 -12 34 -6 45
10 56 18 56 39 0 43 -59 52 -125 20z"/>
<path d="M2180 1540 c-12 -8 -11 -10 8 -10 12 0 22 -4 22 -10 0 -5 7 -10 15
-10 9 0 28 -8 43 -17 66 -42 82 -77 69 -152 -5 -31 -13 -60 -17 -65 -16 -16
-55 4 -115 58 -33 31 -65 55 -72 56 -6 0 -14 10 -16 23 -4 20 -4 19 -6 -4 -1
-21 12 -38 55 -75 78 -68 114 -89 146 -81 34 9 58 61 58 124 0 42 -5 56 -35
90 -46 54 -126 92 -155 73z"/>
<path d="M2161 1507 c-1 -18 52 -77 68 -77 4 0 13 -11 19 -24 18 -39 -5 -36
-48 6 -63 64 -72 43 -9 -23 46 -48 62 -59 79 -54 11 3 20 9 21 13 0 4 2 15 4
24 4 20 -87 118 -109 118 -8 0 -17 8 -19 18 -4 15 -5 15 -6 -1z"/>
</g>
</svg>
